HIERARCHY
ROOT Hips
{
	OFFSET	0.00	0.00	0.00
	CHANNELS 6 Xposition Yposition Zposition Zrotation Xrotation Yrotation
	JOINT Spine
	{
		OFFSET	 0.00	0.01	 0.00
		CHANNELS 3 Zrotation Xrotation Yrotation
		JOINT Spine1
		{
			OFFSET	 0.00	 2.45913012437421	 0.00
			CHANNELS 3 Zrotation Xrotation Yrotation
            JOINT Neck
            {
                OFFSET	 0.00	 2.48462964506057	 0.00
                CHANNELS 3 Zrotation Xrotation Yrotation
                JOINT Head
                {
                    OFFSET	 0.00	 0.927524780924562	 0.00
                    CHANNELS 3 Zrotation Xrotation Yrotation
                    End Site 
                    {
                        OFFSET	 0.00	 1.14999962169752	 0.00
                    }
                }
            }
			JOINT LeftShoulder
			{
				OFFSET	 0.00	 2.48462964506057	 0.00
				CHANNELS 3 Zrotation Xrotation Yrotation
				JOINT LeftUpArm
				{
					OFFSET	 0.00	 1.24881979654096	 0.00
					CHANNELS 3 Zrotation Xrotation Yrotation
					JOINT LeftForeArm
					{
						OFFSET	 0.00	2.59758046908119	 0.00
						CHANNELS 3 Zrotation Xrotation Yrotation
						JOINT LeftHand
						{
							OFFSET	 0.00	2.45542024364365	 0.00
							CHANNELS 3 Zrotation Xrotation Yrotation
							JOINT LeftHandThumb 
							{
								OFFSET	 0.00	0.00	 0.00
								CHANNELS 3 Zrotation Xrotation Yrotation
								End Site
								{
									OFFSET	 0.00	0.00	1.00000003353624
								}
							}
							JOINT L_Wrist_End 
							{
								OFFSET	 0.00	0.99999967115358	 0.00
								CHANNELS 3 Zrotation Xrotation Yrotation
								End Site 
								{
									OFFSET	 0.00	 0.00	 0.00
								}
							}
						}
					}
				}
			}
			JOINT RightShoulder
			{
				OFFSET	 0.00	 2.48462964506057	 0.00
				CHANNELS 3 Zrotation Xrotation Yrotation
				JOINT RightUpArm
				{
					OFFSET	 0.00	 1.24881979654096	 0.00
					CHANNELS 3 Zrotation Xrotation Yrotation
					JOINT RightForeArm
					{
						OFFSET	 0.00	2.59758046908119	 0.00
						CHANNELS 3 Zrotation Xrotation Yrotation
						JOINT RightHand
						{
							OFFSET	 0.00	2.45542024364365	 0.00
							CHANNELS 3 Zrotation Xrotation Yrotation
							JOINT RightHandThumb 
							{
								OFFSET	 0.00	0.00	 0.00
								CHANNELS 3 Zrotation Xrotation Yrotation
								End Site
								{
									OFFSET	 0.00	0.00	1.00000003353624
								}
							}
							JOINT R_Wrist_End 
							{
								OFFSET	 0.00	0.99999967115358	 0.00
								CHANNELS 3 Zrotation Xrotation Yrotation
								End Site 
								{
									OFFSET	 0.00	 0.00	 0.00
								}
							}
						}
					}
				}
			}
		}
	}
	JOINT LeftUpLeg
	{
		OFFSET	 1.2719394002717	 0.00	 0.00
		CHANNELS 3 Zrotation Xrotation Yrotation
		JOINT LeftLowLeg
		{
			OFFSET	 0.00	-4.3429100912261	 0.00
			CHANNELS 3 Zrotation Xrotation Yrotation
			JOINT LeftFoot
			{
				OFFSET	 0.00	-4.48767017425826	 0.00
				CHANNELS 3 Zrotation Xrotation Yrotation
				JOINT LeftToeBase
                {
                    OFFSET	 0.00	0.00	 1.51507020887566
                    CHANNELS 3 Zrotation Xrotation Yrotation
                    End Site 
                    {
                        OFFSET	 0.00	0.00	 0.75000010571191
                    }
                }
			}
		}
	}
	JOINT RightUpLeg
	{
		OFFSET	 -1.2719393604653	 0.00	 0.00
		CHANNELS 3 Zrotation Xrotation Yrotation
		JOINT RightLowLeg
		{
			OFFSET	 0.00	-4.3429100912261	 0.00
			CHANNELS 3 Zrotation Xrotation Yrotation
			JOINT RightFoot
			{
				OFFSET	 0.00	-4.48767017425826	 0.00
				CHANNELS 3 Zrotation Xrotation Yrotation
				JOINT RightToeBase
                {
                    OFFSET	 0.00	0.00	 1.51507020887566
                    CHANNELS 3 Zrotation Xrotation Yrotation
                    End Site 
                    {
                        OFFSET	 0.00	0.00	 0.749999965609858
                    }
                }   
			}
		}
	}
}
MOTION 
Frames:	6 
Frame Time: 0.02 
  -3.1959600830078125 2.5236500549316405 9.406669921875 -137.223 79.0442 -207.706 9.2421 -20.4709 3.14208 -1.46595 7.89329 2.60964 30.6635 37.991 -44.5251 7.36456 -77.0149 13.9506 -103.576004 5.06607 2.9841 10.0175 23.2816 -435.04 0.0 18.9578 0.0 11.4328 -24.3235 -14.2634 0.0 0.0 0.0 0.0 0.0 0.0 116.0995 0.246402 171.719 -39.2337 -29.1874 -566.736 0.0 81.6398 0.0 -5.91564 -11.8665 12.7118 0.0 0.0 0.0 0.0 0.0 0.0 1.27871 -5.73414 -14.2771 0.0 8.27538 0.0 1.07419 -4.4790993 20.3107 0.0 -11.12044 0.0 9.90256 -8.83938 383.755 0.0 4.3569 0.0 6.31124 6.9592505 -23.1419 0.0 -17.78237 0.0 
  -3.19760986328125 2.526820068359375 9.404849853515625 -138.248 78.8638 -207.443 9.085 -20.3751 2.88763 -1.41086 7.88936 2.45561 32.4062 35.5804 -48.4363 5.83526 -77.4346 11.6805 -103.4245 4.93057 2.8964 9.46924 22.5089 -434.758 0.0 18.6156 0.0 12.9304 -24.6134 -11.9467 0.0 0.0 0.0 0.0 0.0 0.0 116.6806 0.000877893 171.806 -37.1265 -26.3347 -563.302 0.0 80.2485 0.0 -5.27666 -12.5831 18.1542 0.0 0.0 0.0 0.0 0.0 0.0 1.26908 -5.84051 -13.6823 0.0 8.20825 0.0 1.07499 -4.5755005 20.447 0.0 -11.107389 0.0 9.91841 -9.07629 384.1 0.0 4.31517 0.0 6.31996 7.07485 -22.7214 0.0 -17.78828 0.0 
  -3.1988101196289063 2.5336199951171876 9.403900146484375 -139.481 78.6106 -207.027 8.9582 -20.2078 2.628 -1.37867 7.70669 2.2555 33.8834 33.3266 -51.901 4.56603 -77.9253 9.67391 -103.335 4.64261 2.89793 8.89353 21.8435 -434.563 0.0 18.3677 0.0 13.7709 -24.7755 -11.8499 0.0 0.0 0.0 0.0 0.0 0.0 116.6991 -0.197526 172.166 -35.9564 -23.27 -560.667 0.0 79.0139 0.0 -6.77277 -13.5005 21.0237 0.0 0.0 0.0 0.0 0.0 0.0 1.24689 -6.05218 -13.0562 0.0 8.15725 0.0 1.06946 -4.6527004 20.611 0.0 -11.11563 0.0 9.94167 -9.44367 384.511 0.0 4.33556 0.0 6.38643 7.1774 -22.2704 0.0 -17.75709 0.0 
  -3.200369873046875 2.5416400146484377 9.402689819335938 -141.082 78.2145 -206.288 8.72376 -20.3297 2.21904 -1.0838 7.77506 2.05434 34.7111 31.367 -54.5045 3.26451 -78.3286 7.72296 -103.4033 4.43261 2.797 8.32574 20.9503 -433.987 0.0 18.0886 0.0 14.0611 -24.8091 -12.4597 0.0 0.0 0.0 0.0 0.0 0.0 116.6662 -0.372243 172.21 -34.5422 -20.8348 -557.239 0.0 77.5304 0.0 -7.07804 -13.0433 22.3144 0.0 0.0 0.0 0.0 0.0 0.0 1.22208 -6.43677 -12.4119 0.0 8.12427 0.0 1.0697 -4.729601 20.7787 0.0 -11.116159 0.0 9.96777 -9.97649 384.954 0.0 4.34433 0.0 6.46099 7.30089 -21.7814 0.0 -17.74592 0.0 
  -3.200989990234375 2.5448899841308594 9.401290283203124 -142.191 77.9409 -206.007 8.75046 -20.1502 2.08698 -1.22516 7.4532 1.85469 35.7132 29.5753 -57.0617 2.24078 -78.79 6.31798 -103.3384 4.47845 3.05368 7.87309 19.9618 -432.978 0.0 17.8898 0.0 14.1638 -25.0231 -13.1041 0.0 0.0 0.0 0.0 0.0 0.0 116.8069 -0.951571 172.529 -33.286 -18.6517 -554.002 0.0 75.9121 0.0 -7.66364 -12.4655 19.9137 0.0 0.0 0.0 0.0 0.0 0.0 1.22654 -6.61672 -11.8749 0.0 8.03803 0.0 1.03808 -4.8341007 20.998 0.0 -11.14933 0.0 10.0174 -10.3182 385.425 0.0 4.33548 0.0 6.51381 7.41284 -21.3831 0.0 -17.71028 0.0 
  -3.1997500610351564 2.5499400329589843 9.401489868164063 -142.918 77.8405 -206.089 8.58214 -20.1554 1.55446 -1.03111 7.84363 1.46582 36.3502 27.6683 -59.1889 2.42124 -79.2295 6.38047 -103.4899 4.16985 2.83252 7.31145 19.0408 -431.856 0.0 17.9395 0.0 14.378 -25.2348 -13.0561 0.0 0.0 0.0 0.0 0.0 0.0 116.6855 -0.942075 172.93 -32.0423 -16.6146 -550.505 0.0 74.6181 0.0 -6.68905 -12.8453 19.869 0.0 0.0 0.0 0.0 0.0 0.0 1.2071 -6.62296 -11.4037 0.0 7.95881 0.0 1.03304 -4.8666 21.2763 0.0 -11.18442 0.0 10.0294 -10.4501 385.779 0.0 4.24998 0.0 6.50508 7.62596 -20.9678 0.0 -17.70965 0.0 
